<svg xmlns="http://www.w3.org/2000/svg" xmlns:xlink="http://www.w3.org/1999/xlink" viewBox="446 252 446 252" width="446" height="252"><path d="M446 252h446v252H446z" fill="#fff"/><g fill="#f8f8f8"><use xlink:href="#B"/><use xlink:href="#B" x="220.998" y="126.05"/><use xlink:href="#B" x="-223.994" y="126.053"/></g><defs ><path id="B" d="M586.163 269.826c0-5.25-.96-6.34-5.63-6.34h-21.7c-4.54 0-5.82 1.22-5.82 5.44v31.55c0 4.36 1.21 5.7 5.31 5.7h21.5c5.25 0 6.34-.9 6.34-5.63v-30.72zm-5.5 4.16v17.02c0 4.48-.58 5.06-5 5.06h-5.31c-2.62 0-3.26.38-3.9 2.17-.71 2.05-1.35 2.44-3.91 2.44-3.52 0-4.16-.9-4.16-5.83v-20.22c0-5.25.45-5.76 5.25-5.76h12.55c3.84 0 4.48.7 4.48 5.12zm29.564 32.19c4.22 0 4.93-.7 4.93-4.93v-21.44c0-3.01-.51-3.9-2.31-3.9-1.79 0-2.36.96-2.36 3.9v18.31c0 2.94-.45 3.39-3.4 3.39h-3.07c-3.13 0-3.45-.32-3.45-3.39v-7.17c0-2.56-.32-3.07-2.12-3.59-1.85-.44-2.11-.89-2.11-2.94v-4.61c0-3.01-.51-3.9-2.3-3.9s-2.37.96-2.37 3.9v21.44c0 4.23.7 4.93 4.93 4.93h13.63zm19.008-38.78v-.13c0-2.95-1.02-3.84-4.35-3.84-3.46 0-4.61 1.02-4.61 4.09 0 2.88 1.02 3.72 4.48 3.72 3.39 0 4.48-.9 4.48-3.84zm-.06 23.55c0-2.56-.32-3.07-2.12-3.59-1.79-.44-2.04-.89-2.04-2.94v-4.61c0-3.01-.58-3.9-2.37-3.9-1.73 0-2.31.96-2.31 3.9v20.93c0 4.74.58 5.44 4.61 5.44 3.52 0 4.23-.96 4.23-5.44v-9.79zm4.348 10.17c0 4.42.64 5.06 4.93 5.06h10.94c2.37 0 2.95.58 2.95 2.88v4.48c0 3.01.57 3.9 2.36 3.9 1.8 0 2.31-.96 2.31-3.96v-32.52c0-4.03-.9-4.92-4.8-4.92h-13.76c-4.23 0-4.93.7-4.93 4.92v20.16zm18.88-17.08v14.08c0 2.94-.51 3.39-3.46 3.39h-3.07c-3.13 0-3.45-.32-3.45-3.39v-5.76c0-2.56-.32-3.08-2.12-3.59-1.79-.45-2.11-.89-2.11-2.94v-1.79c0-2.88.51-3.4 3.39-3.4h7.43c2.94 0 3.39.45 3.39 3.4zm28.096 22.14c4.22 0 4.93-.7 4.93-4.93v-21.44c0-3.01-.51-3.9-2.31-3.9-1.79 0-2.36.96-2.36 3.9v18.31c0 2.94-.45 3.39-3.4 3.39h-3.07c-3.13 0-3.45-.32-3.45-3.39v-7.17c0-2.56-.32-3.07-2.12-3.59-1.85-.44-2.11-.89-2.11-2.94v-4.61c0-3.01-.51-3.9-2.3-3.9s-2.37.96-2.37 3.9v21.44c0 4.23.7 4.93 4.93 4.93h13.63zm33.538-25.09c0-4.41-.58-5.05-4.93-5.05h-13.63c-4.29 0-4.93.64-4.93 5.05v20.16c0 4.23.7 4.93 4.93 4.93h13.63c4.22 0 4.93-.7 4.93-4.93v-1.79c0-2.3-.71-3.33-2.37-3.33-1.34 0-2.11.77-2.24 2.18l-.13 1.09c-.13 1.53-.77 2.04-2.69 2.04h-3.77c-3.07 0-3.46-.32-3.46-3.39v-2.05c0-2.88.51-3.39 3.39-3.39h6.34c4.22 0 4.93-.77 4.93-4.93v-6.59zm-8.07 6.85h-7.36c-3.07 0-3.39-.32-3.39-3.46v-.44c0-3.08.32-3.4 3.39-3.4h7.36c2.95 0 3.4.45 3.4 3.4v.44c0 3.01-.45 3.46-3.4 3.46zm23.304 14.46c0-3.26-.96-4.03-5.06-4.03-4.03 0-4.99.71-4.99 3.78 0 3.39.83 4.03 5.25 4.03 3.71 0 4.8-.9 4.8-3.78zm29.054-21.31c0-4.41-.58-5.05-4.93-5.05h-13.63c-4.29 0-4.93.64-4.93 5.05v20.16c0 4.23.7 4.93 4.93 4.93h10.56c2.94 0 3.39.45 3.39 3.39 0 2.5-.64 3.01-3.46 3.01h-11.39c-3.01 0-3.97.58-3.97 2.37s.96 2.3 3.91 2.3h14.46c4.29 0 5.06-.77 5.06-4.86v-31.3zm-4.61 2.95v14.08c0 2.94-.51 3.39-3.46 3.39h-3.07c-3.13 0-3.45-.32-3.45-3.39v-5.76c0-2.56-.32-3.08-2.12-3.59-1.79-.45-2.11-.89-2.11-2.94v-1.79c0-2.88.51-3.4 3.39-3.4h7.43c2.94 0 3.39.45 3.39 3.4zm9.536 17.08c0 4.42.64 5.06 4.93 5.06h10.94c2.37 0 2.95.58 2.95 2.88v4.48c0 3.01.57 3.9 2.36 3.9 1.8 0 2.31-.96 2.31-3.96v-32.52c0-4.03-.9-4.92-4.8-4.92h-13.76c-4.23 0-4.93.7-4.93 4.92v20.16zm18.88-17.08v14.08c0 2.94-.51 3.39-3.46 3.39h-3.07c-3.13 0-3.45-.32-3.45-3.39v-5.76c0-2.56-.32-3.08-2.12-3.59-1.79-.45-2.11-.89-2.11-2.94v-1.79c0-2.88.51-3.4 3.39-3.4h7.43c2.94 0 3.39.45 3.39 3.4z"/></defs></svg>