<?xml version="1.0" encoding="utf-8"?>
<svg viewBox="83.427 91.3 298.49 93.557" xmlns="http://www.w3.org/2000/svg">
  <path d="M 138.512 114.894 C 138.512 108.994 137.432 107.774 132.172 107.774 L 107.772 107.774 C 102.652 107.774 101.212 109.134 101.212 113.894 L 101.212 149.384 C 101.212 154.284 102.582 155.794 107.192 155.794 L 131.382 155.794 C 137.292 155.794 138.512 154.784 138.512 149.454 L 138.512 114.894 Z M 132.322 119.574 L 132.322 138.734 C 132.322 143.774 131.672 144.414 126.702 144.414 L 122.382 144.414 L 120.732 144.414 C 117.772 144.414 117.052 144.854 116.332 146.864 C 115.542 149.174 114.822 149.604 111.942 149.604 C 107.982 149.604 107.262 148.594 107.262 143.054 L 107.262 120.294 C 107.262 114.394 107.772 113.814 113.172 113.814 L 127.282 113.814 C 131.602 113.814 132.322 114.614 132.322 119.574 Z M 165.58 155.794 C 170.33 155.794 171.12 155.004 171.12 150.254 L 171.12 126.134 C 171.12 122.744 170.55 121.734 168.53 121.734 C 166.52 121.734 165.87 122.814 165.87 126.134 L 165.87 146.724 C 165.87 150.034 165.36 150.534 162.05 150.534 L 158.6 150.534 C 155.07 150.534 154.71 150.174 154.71 146.724 L 154.71 138.654 C 154.71 135.774 154.35 135.204 152.33 134.624 C 150.24 134.124 149.96 133.614 149.96 131.314 L 149.96 126.134 C 149.96 122.744 149.38 121.734 147.36 121.734 C 145.35 121.734 144.7 122.814 144.7 126.134 L 144.7 150.254 C 144.7 155.004 145.49 155.794 150.24 155.794 L 165.58 155.794 Z M 186.96 112.164 C 186.96 112.094 186.96 112.014 186.96 112.014 C 186.96 108.704 185.81 107.694 182.06 107.694 C 178.18 107.694 176.88 108.854 176.88 112.304 C 176.88 115.544 178.03 116.484 181.92 116.484 C 185.74 116.484 186.96 115.474 186.96 112.164 Z M 186.89 138.654 C 186.89 135.774 186.53 135.204 184.51 134.624 C 182.5 134.124 182.21 133.614 182.21 131.314 L 182.21 126.134 C 182.21 122.744 181.56 121.734 179.54 121.734 C 177.6 121.734 176.95 122.814 176.95 126.134 L 176.95 149.674 C 176.95 155.004 177.6 155.794 182.14 155.794 C 186.1 155.794 186.89 154.714 186.89 149.674 L 186.89 138.654 Z M 191.783 150.104 C 191.783 155.074 192.503 155.794 197.323 155.794 L 209.643 155.794 C 212.303 155.794 212.953 156.444 212.953 159.034 L 212.953 164.074 C 212.953 167.454 213.603 168.464 215.613 168.464 C 217.633 168.464 218.203 167.384 218.203 164.004 L 218.203 127.424 C 218.203 122.894 217.203 121.884 212.803 121.884 L 197.323 121.884 C 192.573 121.884 191.783 122.674 191.783 127.424 L 191.783 150.104 Z M 213.023 130.884 L 213.023 146.724 C 213.023 150.034 212.443 150.534 209.133 150.534 L 205.683 150.534 C 202.153 150.534 201.793 150.174 201.793 146.724 L 201.793 140.244 C 201.793 137.364 201.433 136.784 199.413 136.214 C 197.403 135.704 197.043 135.204 197.043 132.894 L 197.043 130.884 C 197.043 127.644 197.613 127.064 200.853 127.064 L 209.203 127.064 C 212.523 127.064 213.023 127.574 213.023 130.884 Z M 244.627 155.794 C 249.377 155.794 250.167 155.004 250.167 150.254 L 250.167 126.134 C 250.167 122.744 249.597 121.734 247.577 121.734 C 245.567 121.734 244.917 122.814 244.917 126.134 L 244.917 146.724 C 244.917 150.034 244.407 150.534 241.097 150.534 L 237.647 150.534 C 234.117 150.534 233.757 150.174 233.757 146.724 L 233.757 138.654 C 233.757 135.774 233.397 135.204 231.377 134.624 C 229.287 134.124 229.007 133.614 229.007 131.314 L 229.007 126.134 C 229.007 122.744 228.427 121.734 226.407 121.734 C 224.397 121.734 223.747 122.814 223.747 126.134 L 223.747 150.254 C 223.747 155.004 224.537 155.794 229.287 155.794 L 244.627 155.794 Z M 282.348 127.574 C 282.348 122.604 281.708 121.884 276.808 121.884 L 261.468 121.884 C 256.648 121.884 255.928 122.604 255.928 127.574 L 255.928 150.254 C 255.928 155.004 256.718 155.794 261.468 155.794 L 276.808 155.794 C 281.558 155.794 282.348 155.004 282.348 150.254 L 282.348 148.234 C 282.348 145.644 281.558 144.494 279.688 144.494 C 278.178 144.494 277.308 145.354 277.168 146.934 L 277.028 148.164 C 276.878 149.894 276.158 150.464 273.998 150.464 L 269.748 150.464 C 266.298 150.464 265.868 150.104 265.868 146.654 L 265.868 144.344 C 265.868 141.104 266.438 140.534 269.678 140.534 L 276.808 140.534 C 281.558 140.534 282.348 139.664 282.348 134.984 L 282.348 127.574 Z M 273.278 135.274 L 264.998 135.274 C 261.548 135.274 261.188 134.914 261.188 131.384 L 261.188 130.884 C 261.188 127.424 261.548 127.064 264.998 127.064 L 273.278 127.064 C 276.588 127.064 277.098 127.574 277.098 130.884 L 277.098 131.384 C 277.098 134.774 276.588 135.274 273.278 135.274 Z M 299.486 151.544 C 299.486 147.874 298.406 147.014 293.796 147.014 C 289.256 147.014 288.176 147.804 288.176 151.254 C 288.176 155.074 289.116 155.794 294.086 155.794 C 298.256 155.794 299.486 154.784 299.486 151.544 Z M 332.166 127.574 C 332.166 122.604 331.526 121.884 326.626 121.884 L 311.286 121.884 C 306.466 121.884 305.746 122.604 305.746 127.574 L 305.746 150.254 C 305.746 155.004 306.536 155.794 311.286 155.794 L 323.166 155.794 C 326.486 155.794 326.986 156.294 326.986 159.614 C 326.986 162.414 326.266 162.994 323.096 162.994 L 310.286 162.994 C 306.896 162.994 305.816 163.644 305.816 165.654 C 305.816 167.674 306.896 168.254 310.206 168.254 L 326.486 168.254 C 331.306 168.254 332.166 167.384 332.166 162.774 L 332.166 127.574 Z M 326.986 130.884 L 326.986 146.724 C 326.986 150.034 326.406 150.534 323.096 150.534 L 319.646 150.534 C 316.116 150.534 315.756 150.174 315.756 146.724 L 315.756 140.244 C 315.756 137.364 315.396 136.784 313.376 136.214 C 311.366 135.704 311.006 135.204 311.006 132.894 L 311.006 130.884 C 311.006 127.644 311.576 127.064 314.816 127.064 L 323.166 127.064 C 326.486 127.064 326.986 127.574 326.986 130.884 Z M 337.711 150.104 C 337.711 155.074 338.431 155.794 343.251 155.794 L 355.571 155.794 C 358.231 155.794 358.881 156.444 358.881 159.034 L 358.881 164.074 C 358.881 167.454 359.531 168.464 361.541 168.464 C 363.561 168.464 364.131 167.384 364.131 164.004 L 364.131 127.424 C 364.131 122.894 363.131 121.884 358.731 121.884 L 343.251 121.884 C 338.501 121.884 337.711 122.674 337.711 127.424 L 337.711 150.104 Z M 358.951 130.884 L 358.951 146.724 C 358.951 150.034 358.371 150.534 355.061 150.534 L 351.611 150.534 C 348.081 150.534 347.721 150.174 347.721 146.724 L 347.721 140.244 C 347.721 137.364 347.361 136.784 345.341 136.214 C 343.331 135.704 342.971 135.204 342.971 132.894 L 342.971 130.884 C 342.971 127.644 343.541 127.064 346.781 127.064 L 355.131 127.064 C 358.451 127.064 358.951 127.574 358.951 130.884 Z" style="stroke: rgb(0, 0, 0); white-space: pre; stroke-width: 2px; fill: rgb(255, 255, 255);"/>
</svg>