<svg xmlns="http://www.w3.org/2000/svg" viewBox="99.887 106.396 266 64" width="266" height="64"><path d="M138.727 115.211c0-5.9-1.08-7.12-6.34-7.12h-24.4c-5.12 0-6.56 1.36-6.56 6.12v35.49c0 4.9 1.37 6.41 5.98 6.41h24.19c5.91 0 7.13-1.01 7.13-6.34v-34.56zm-6.19 4.68v19.16c0 5.04-.65 5.68-5.62 5.68h-5.97c-2.96 0-3.68.44-4.4 2.45-.79 2.31-1.51 2.74-4.39 2.74-3.96 0-4.68-1.01-4.68-6.55v-22.76c0-5.9.51-6.48 5.91-6.48h14.11c4.32 0 5.04.8 5.04 5.76zm33.258 36.22c4.75 0 5.54-.79 5.54-5.54v-24.12c0-3.39-.57-4.4-2.59-4.4-2.01 0-2.66 1.08-2.66 4.4v20.59c0 3.31-.51 3.81-3.82 3.81h-3.45c-3.53 0-3.89-.36-3.89-3.81v-8.07c0-2.88-.36-3.45-2.38-4.03-2.09-.5-2.37-1.01-2.37-3.31v-5.18c0-3.39-.58-4.4-2.6-4.4-2.01 0-2.66 1.08-2.66 4.4v24.12c0 4.75.79 5.54 5.54 5.54h15.34zm21.38-43.63v-.15c0-3.31-1.15-4.32-4.9-4.32-3.88 0-5.18 1.16-5.18 4.61 0 3.24 1.15 4.18 5.04 4.18 3.82 0 5.04-1.01 5.04-4.32zm-.07 26.49c0-2.88-.36-3.45-2.38-4.03-2.01-.5-2.3-1.01-2.3-3.31v-5.18c0-3.39-.65-4.4-2.67-4.4-1.94 0-2.59 1.08-2.59 4.4v23.54c0 5.33.65 6.12 5.19 6.12 3.96 0 4.75-1.08 4.75-6.12v-11.02zm4.893 11.45c0 4.97.72 5.69 5.54 5.69h12.32c2.66 0 3.31.65 3.31 3.24v5.04c0 3.38.65 4.39 2.66 4.39 2.02 0 2.59-1.08 2.59-4.46v-36.58c0-4.53-1-5.54-5.4-5.54h-15.48c-4.75 0-5.54.79-5.54 5.54v22.68zm21.24-19.22v15.84c0 3.31-.58 3.81-3.89 3.81h-3.45c-3.53 0-3.89-.36-3.89-3.81v-6.48c0-2.88-.36-3.46-2.38-4.03-2.01-.51-2.37-1.01-2.37-3.32v-2.01c0-3.24.57-3.82 3.81-3.82h8.35c3.32 0 3.82.51 3.82 3.82zm31.604 24.91c4.75 0 5.54-.79 5.54-5.54v-24.12c0-3.39-.57-4.4-2.59-4.4-2.01 0-2.66 1.08-2.66 4.4v20.59c0 3.31-.51 3.81-3.82 3.81h-3.45c-3.53 0-3.89-.36-3.89-3.81v-8.07c0-2.88-.36-3.45-2.38-4.03-2.09-.5-2.37-1.01-2.37-3.31v-5.18c0-3.39-.58-4.4-2.6-4.4-2.01 0-2.66 1.08-2.66 4.4v24.12c0 4.75.79 5.54 5.54 5.54h15.34zm37.721-28.22c0-4.97-.64-5.69-5.54-5.69h-15.34c-4.82 0-5.54.72-5.54 5.69v22.68c0 4.75.79 5.54 5.54 5.54h15.34c4.75 0 5.54-.79 5.54-5.54v-2.02c0-2.59-.79-3.74-2.66-3.74-1.51 0-2.38.86-2.52 2.44l-.14 1.23c-.15 1.73-.87 2.3-3.03 2.3h-4.25c-3.45 0-3.88-.36-3.88-3.81v-2.31c0-3.24.57-3.81 3.81-3.81h7.13c4.75 0 5.54-.87 5.54-5.55v-7.41zm-9.07 7.7h-8.28c-3.45 0-3.81-.36-3.81-3.89v-.5c0-3.46.36-3.82 3.81-3.82h8.28c3.31 0 3.82.51 3.82 3.82v.5c0 3.39-.51 3.89-3.82 3.89zm26.208 16.27c0-3.67-1.08-4.53-5.69-4.53-4.54 0-5.62.79-5.62 4.24 0 3.82.94 4.54 5.91 4.54 4.17 0 5.4-1.01 5.4-4.25zm32.68-23.97c0-4.97-.64-5.69-5.54-5.69h-15.34c-4.82 0-5.54.72-5.54 5.69v22.68c0 4.75.79 5.54 5.54 5.54h11.88c3.32 0 3.82.5 3.82 3.82 0 2.8-.72 3.38-3.89 3.38h-12.81c-3.39 0-4.47.65-4.47 2.66 0 2.02 1.08 2.6 4.39 2.6h16.28c4.82 0 5.68-.87 5.68-5.48v-35.2zm-5.18 3.31v15.84c0 3.31-.58 3.81-3.89 3.81h-3.45c-3.53 0-3.89-.36-3.89-3.81v-6.48c0-2.88-.36-3.46-2.38-4.03-2.01-.51-2.37-1.01-2.37-3.32v-2.01c0-3.24.57-3.82 3.81-3.82h8.35c3.32 0 3.82.51 3.82 3.82zm10.725 19.22c0 4.97.72 5.69 5.54 5.69h12.32c2.66 0 3.31.65 3.31 3.24v5.04c0 3.38.65 4.39 2.66 4.39 2.02 0 2.59-1.08 2.59-4.46v-36.58c0-4.53-1-5.54-5.4-5.54h-15.48c-4.75 0-5.54.79-5.54 5.54v22.68zm21.24-19.22v15.84c0 3.31-.58 3.81-3.89 3.81h-3.45c-3.53 0-3.89-.36-3.89-3.81v-6.48c0-2.88-.36-3.46-2.38-4.03-2.01-.51-2.37-1.01-2.37-3.32v-2.01c0-3.24.57-3.82 3.81-3.82h8.35c3.32 0 3.82.51 3.82 3.82z" stroke="#000" stroke-width="2" fill="#fff"/><defs/></svg>